
<svg xmlns="http://www.w3.org/2000/svg" version="1.1" xmlns:xlink="http://www.w3.org/1999/xlink" preserveAspectRatio="none" x="0px" y="0px" width="50px" height="50px" viewBox="0 0 50 50">
<defs>
<g id="Layer0_0_MEMBER_0_FILL">
<path fill="#D81803" stroke="none" d="
M 0 -44.3
L 0 -39.55 50 -39.55 50 -44.3 0 -44.3 Z"/>
</g>

<g id="Layer0_0_MEMBER_1_FILL">
<path fill="#D81803" stroke="none" d="
M 33.5 -51.95
L 15 -51.95 15 -31.95 33.5 -31.95 33.5 -51.95 Z"/>
</g>

<g id="Layer0_1_MEMBER_0_FILL">
<path fill="#10A8FF" stroke="none" d="
M 50 12.7
L 50 7.95 0 7.95 0 12.7 50 12.7 Z"/>
</g>

<g id="Layer0_1_MEMBER_1_FILL">
<path fill="#10A8FF" stroke="none" d="
M 26 0.05
L 13.05 19.75 38.9 19.75 26 0.05 Z"/>
</g>

<g id="Layer0_2_MEMBER_1_FILL">
<path fill="#333333" stroke="none" d="
M 118.75 39.25
Q 114.4 27.6 104.95 17.9 86.9 0 61.4 0 59.6 0 57.45 0.1 57.2 0.1 56.55 0.1 46.7 0.85 37.85 4.35 36.95 4.7 35.8 5.35 26.1 9.7 17.9 17.9 0 35.95 0 61.3 0 79.7 9.3 94.05 11.9 98.15 15.35 102.1 11.25 104.3 6.5 107 5.35 108 5.85 109.15 6.65 110.3 8.3 110.95 13.4 113.65 21.75 117.5 24.4 118.75 27.35 120.05 29.4 120.95 31.45 121.85 32.1 122.1 32.75 122.35 36.95 124.15 40.3 125.3 44.4 126.8 46.95 127.6 48.75 128.25 50.55 127.35 52.05 126.3 52.45 124.65 52.7 123.5 52.95 122.35 53.35 120.05 53.5 117.6 54.5 111.6 55.4 102.75 55.8 98.9 56.05 95.95 56.05 95.45 56.15 94.95 56.7 88.4 56.7 86.1 56.95 79.7 53.5 81.25 50.65 82.65 42.75 87.15 41.2 84.45 40.15 81.4 38 73.45 42.1 66.4 43 65 44 63.85 49.25 58.6 56.55 58.6 64.25 58.6 69.5 63.95 74.45 68.85 74.85 75.75 75 79.45 76.9 78.8 88.05 76.25 99.15 73.45 121.3 68.05 121.7 67.8 122.7 66.9 122.7 61.3 122.7 58.6 122.45 55.9 121.85 47.1 118.75 39.25 Z"/>
</g>

<path id="Layer0_2_MEMBER_0_1_STROKES" stroke="#000000" stroke-width="1" stroke-linejoin="round" stroke-linecap="round" fill="none" d="
M 47.49969482421875 24.999847412109375
Q 47.49969482421875 34.31478424072266 40.88473968505859 40.88473968505859 34.31478424072266 47.49969482421875 24.999847412109375 47.49969482421875 15.639910888671874 47.49969482421875 9.069955444335937 40.88473968505859 2.5 34.31478424072266 2.5 24.999847412109375 2.5 15.639910888671874 9.069955444335937 9.069955444335937 15.639910888671874 2.5 24.999847412109375 2.5 34.31478424072266 2.5 40.88473968505859 9.069955444335937 47.49969482421875 15.639910888671874 47.49969482421875 24.999847412109375 Z"/>
</defs>

<g transform="matrix( 1, 0, 0, 1, 0,0) ">
<use xlink:href="#Layer0_0_MEMBER_0_FILL"/>
</g>

<g transform="matrix( 1, 0, 0, 1, 0,0) ">
<use xlink:href="#Layer0_0_MEMBER_1_FILL"/>
</g>

<g transform="matrix( 1, 0, 0, 1, 69,-114.95) ">
<use xlink:href="#Layer0_1_MEMBER_0_FILL"/>
</g>

<g transform="matrix( 1, 0, 0, 1, 69,-114.95) ">
<use xlink:href="#Layer0_1_MEMBER_1_FILL"/>
</g>

<g transform="matrix( 0.899993896484375, 0, 0, 0.899993896484375, 2.5,2.5) ">
<use xlink:href="#Layer0_2_MEMBER_0_1_STROKES" transform="matrix( 1.111114501953125, 0, 0, 1.111114501953125, -2.8,-2.8) "/>
</g>

<g transform="matrix( 0.2227630615234375, 0, 0, 0.2227630615234375, 12.15,11.1) ">
<use xlink:href="#Layer0_2_MEMBER_1_FILL"/>
</g>
</svg>
